<?xml version="1.0" standalone="no"?>
<!DOCTYPE svg PUBLIC "-//W3C//DTD SVG 20010904//EN"
 "http://www.w3.org/TR/2001/REC-SVG-20010904/DTD/svg10.dtd">
<svg version="1.0" xmlns="http://www.w3.org/2000/svg"
 width="512.000000pt" height="512.000000pt" viewBox="0 0 512.000000 512.000000"
 preserveAspectRatio="xMidYMid meet">
<metadata>
Created by potrace 1.14, written by Peter Selinger 2001-2017
</metadata>
<g transform="translate(0.000000,512.000000) scale(0.100000,-0.100000)"
fill="#000000" stroke="none">
<path d="M3256 4419 c-108 -12 -259 -47 -369 -86 -98 -34 -282 -118 -291 -132
-3 -4 350 -329 784 -722 l789 -714 0 -322 1 -323 -195 0 -195 0 0 -374 0 -374
43 9 c23 6 57 14 75 20 30 10 44 4 255 -112 122 -67 248 -137 280 -155 l57
-33 0 292 0 293 48 36 c68 52 283 278 265 278 -5 0 0 5 10 11 9 5 17 16 17 24
0 7 4 15 9 17 12 4 73 102 114 183 165 329 197 740 85 1095 -45 142 -199 430
-231 430 -6 0 -8 3 -4 6 6 6 1 12 -84 113 -173 202 -456 381 -744 470 -231 70
-496 96 -719 70z"/>
<path d="M1631 4049 c-807 -91 -1457 -672 -1585 -1417 -81 -469 50 -941 366
-1317 81 -97 130 -146 221 -222 l58 -48 -1 -323 c0 -177 1 -322 3 -322 2 0
142 77 311 170 l308 170 57 -14 c187 -48 461 -68 656 -47 372 40 713 180 997
410 43 34 125 113 184 174 59 62 103 106 100 100 -5 -10 7 -13 48 -13 30 0 61
-3 70 -6 14 -5 16 48 16 521 0 290 3 531 6 536 3 5 90 9 195 9 l189 0 0 99 0
100 -119 108 c-65 59 -360 328 -655 596 l-537 489 -32 -26 c-18 -14 -313 -281
-657 -593 l-625 -569 -3 -102 -3 -102 196 0 195 0 -2 -361 -3 -361 -70 -22
c-103 -33 -171 -80 -237 -166 l-27 -35 -1 330 0 330 -192 0 -193 0 -3 315 -2
316 687 623 c379 343 689 627 691 631 1 4 -46 15 -105 24 -129 21 -385 28
-502 15z m854 -1164 c77 -44 81 -57 66 -199 -7 -66 -15 -159 -18 -204 -4 -57
-10 -85 -19 -89 -8 -3 -14 -15 -14 -27 0 -12 -4 -26 -9 -32 -4 -5 -16 -30 -26
-56 -47 -126 -64 -69 -75 247 -6 163 -14 261 -24 304 -9 36 -14 71 -11 79 8
21 75 10 130 -23z m346 6 c30 -16 62 -42 72 -59 17 -29 17 -38 3 -169 -8 -76
-18 -168 -22 -205 -3 -38 -10 -68 -15 -68 -5 0 -9 -7 -9 -16 0 -18 -67 -164
-75 -164 -18 0 -29 85 -36 295 -6 184 -12 259 -28 320 -10 44 -17 83 -15 87
11 17 74 6 125 -21z m816 -413 c-3 -8 -6 -5 -6 6 -1 11 2 17 5 13 3 -3 4 -12
1 -19z m-1117 -127 c0 -6 -4 -13 -10 -16 -5 -3 -10 1 -10 9 0 9 5 16 10 16 6
0 10 -4 10 -9z m347 -13 c-3 -8 -6 -5 -6 6 -1 11 2 17 5 13 3 -3 4 -12 1 -19z
m-797 -256 c60 -63 137 -108 245 -144 63 -21 87 -23 245 -22 215 1 282 14 456
87 71 30 131 53 133 51 2 -2 -5 -15 -15 -30 -11 -15 -23 -33 -29 -41 -27 -41
-66 -74 -103 -88 -22 -9 -43 -23 -46 -30 -11 -30 -237 -83 -420 -99 -75 -7
-263 9 -341 29 -173 45 -318 163 -300 245 7 32 78 100 104 100 9 0 40 -26 71
-58z m1004 -177 c-10 -8 -23 -14 -29 -14 -5 0 -1 6 9 14 11 8 24 15 30 15 5 0
1 -7 -10 -15z m286 -459 c0 -2 -8 -10 -17 -17 -16 -13 -17 -12 -4 4 13 16 21
21 21 13z"/>
</g>
</svg>
